PathFileType	4	(X/Y/Z)	Patient4_TMGait_0pt5_01_right_31.trc.trc
DataRate	CameraRate	NumFrames	NumMarkers	Units	OrigDataRate	OrigDataStartFrame	OrigNumFrames
75.675675675676	75.675675675676	4	33	mm	75.675675675676	89	       141
Frame#	Time	L.ASIS			Sacral			L.Shoulder			Chest			R.Shoulder			Neck			R.ASIS			R.Thigh.Superior			R.Thigh.Lateral			R.Thigh.Inferior			R.Patella			L.Thigh.Superior			L.Thigh.Lateral			L.Thigh.Inferior			L.Patella			L.Shank.Superior			L.Shank.Lateral			L.Shank.Inferior			R.Shank.Superior			R.Shank.Lateral			R.Shank.Inferior			R.Heel			R.Midfoot.Superior			R.Midfoot.Lateral			R.Toe			L.Heel			L.Midfoot.Lateral			L.Midfoot.Superior			L.Toe			L.Elbow			L.Wrist			R.Elbow			R.Wrist			
		X1	Y1	Z1	X2	Y2	Z2	X3	Y3	Z3	X4	Y4	Z4	X5	Y5	Z5	X6	Y6	Z6	X7	Y7	Z7	X8	Y8	Z8	X9	Y9	Z9	X10	Y10	Z10	X11	Y11	Z11	X12	Y12	Z12	X13	Y13	Z13	X14	Y14	Z14	X15	Y15	Z15	X16	Y16	Z16	X17	Y17	Z17	X18	Y18	Z18	X19	Y19	Z19	X20	Y20	Z20	X21	Y21	Z21	X22	Y22	Z22	X23	Y23	Z23	X24	Y24	Z24	X25	Y25	Z25	X26	Y26	Z26	X27	Y27	Z27	X28	Y28	Z28	X29	Y29	Z29	X30	Y30	Z30	X31	Y31	Z31	X32	Y32	Z32	X33	Y33	Z33	

89	41.912857142857	871.488022759797	966.525560236875	329.163981092244	668.993944709621	1004.318828394807	501.182673410407	807.592612120260	1438.563567444581	321.513781749210	928.095881355204	1368.591623827870	470.609239351737	858.206226840445	1435.447069209829	654.152982763954	822.321714905580	1497.338604027488	472.379392791176	902.514985425406	938.156695892413	601.442253369256	919.647513773513	727.828586814112	578.489783724547	827.354548661870	626.927591378115	643.273109879371	898.987070553884	561.440887368561	568.287167748533	881.309996710388	457.786442140205	583.924071459197	938.987117125955	763.818392048077	360.545783891457	863.692836594933	639.314535081051	301.559873353215	955.684039921885	569.206749471819	364.022162534497	963.405947288517	497.625854121928	373.331173683316	939.453503069125	424.313074265245	364.504696706371	856.545166023832	306.918715351440	311.132341665800	910.830405505744	196.998285719539	380.254738301439	810.422788652357	388.253597965158	589.772342582703	696.287136435242	333.226090496478	649.621264537505	692.456052566676	224.981813568389	595.622288008920	496.483375427351	127.825131311199	565.854911970912	673.322998016617	108.475966912688	606.754844031898	566.635122731180	81.210980780859	637.942355685519	760.687055043424	35.407156676111	630.124565830651	787.310052085530	38.290744120159	417.432476624270	861.659884832082	36.314642820116	337.019738026542	945.001673547020	97.292288337817	364.179011575628	1073.345889138308	43.502298453922	335.778399231047	777.858831536877	1082.916667598938	203.937532291656	896.973584428423	850.557549814255	180.776574368212	862.705913100299	1084.374941056531	763.745880385445	984.373885413312	853.668065889356	762.407458173572	
90	41.926071428571	873.210672227396	967.134515292676	326.702570424501	669.750314579834	1004.402605280192	497.823054085782	808.848791818713	1439.440431411738	319.511021656616	928.362618843109	1369.425857850501	469.356377078447	856.869550363816	1435.491409437106	652.543882062326	822.175400182658	1497.835999631777	470.644423506453	903.225791658808	938.838707578108	599.049894829307	924.507289744155	729.277946314815	577.084631803299	834.145039264507	627.068530210541	642.139539095765	907.773319430973	562.249250063618	567.808673894910	891.106511656817	457.387614543512	584.551239703567	939.259355094212	762.895429306053	357.897627244130	862.566766418631	639.053878302437	299.593443217292	953.689479893379	568.192454034012	362.295690186811	960.763956744372	496.707002095832	372.034349276313	936.258435279521	423.418767978156	363.422373179775	852.558503578910	306.557230891692	310.199774922930	905.506933677623	196.489076460230	379.927958775262	818.275538055607	388.696137420194	590.284192185308	702.294088175188	337.410588705666	649.965642124090	695.711848163459	228.871729187731	596.913774343729	497.135507190847	140.098165343398	567.458108289072	672.175422676860	110.208845308326	607.855916507033	564.369956356384	88.807608791814	638.929380695504	754.317008355259	34.702723046946	630.144104730892	780.624608429568	38.261576939884	417.319286672335	855.006754852182	36.223439712997	336.925762443220	938.420954821083	97.153960051972	364.179634278372	1066.779503004057	43.111555059667	335.791330722903	784.785401345841	1084.452286950635	198.666617873100	914.198686751958	857.511837425121	175.437382719958	853.484304393314	1084.493358922512	761.450410765815	960.928157686930	846.635291183220	762.941398906644	
91	41.939285714286	874.827153114795	967.567415412460	324.310845187999	670.399621613196	1004.306113913281	494.617094071866	810.094314969402	1440.138046774915	317.586279257078	928.596837248356	1370.036554198312	468.173482310852	855.521819193412	1435.345697261241	650.995765129393	822.046615797311	1498.154646266343	468.979594549841	903.794673347374	939.353336741620	596.761911639685	929.513187788644	730.790286760416	575.553062141267	841.410335530398	627.216736227616	640.970970083526	916.920353170457	563.228911018588	567.046781723203	901.467164890968	457.174329039614	584.783717985783	939.459644491433	761.926869056804	355.450224322554	861.465169572537	638.760409361038	297.646959109484	951.696184663555	567.162618492676	360.638898473403	958.098355638864	495.747524677818	370.748859591772	933.055316636935	422.471877407951	362.330155868465	848.565307293698	306.151202168553	309.241054437113	900.186934356514	195.947821860737	379.563837905806	826.817709449489	389.294592942785	590.517788492167	709.284071803786	341.747463859276	650.337564315066	699.757937453420	233.099776928959	598.112702885548	499.072416176914	153.336783601993	569.261630157466	671.548832891459	112.395816790103	608.932639154041	562.988219503194	97.383001545030	640.089694221595	747.973657416941	33.733365869425	630.211422946611	773.957385708265	38.231191524105	417.183740711072	848.369453727403	36.123219809359	336.803467610087	931.852799612614	97.001998797986	364.156426060196	1060.222655694581	42.740838680750	335.791219797635	791.678265826129	1086.064663628315	193.264144227539	931.333562203091	865.139059485543	170.094620210867	843.839173720062	1084.642382273558	759.125954747060	937.224786564630	840.844560657996	763.413302684504	
92	41.952500000000	876.340625782551	967.829709142371	322.021456767248	670.916565319508	1004.037219824171	491.576605297821	811.312551414201	1440.645414803754	315.745560139810	928.785969425817	1370.419099974215	467.065514990720	854.167033780054	1435.037841416116	649.509213562895	821.957241930699	1498.301868598254	467.378739526403	904.180444659626	939.710838245931	594.625845630853	934.593966936488	732.415660180641	573.846897472187	849.148549287227	627.424910828306	639.724634540353	926.378096531333	564.452074784917	565.912043166129	912.380224020892	457.205317848016	584.528056242627	939.606589011261	760.933015698678	353.223451831747	860.398658610850	638.430935058422	295.768669274887	949.738199369428	566.122867134498	359.075933644499	955.452404170479	494.756707646891	369.522698764946	929.878008756168	421.481201082576	361.271569923838	844.594213313050	305.720511373117	308.284438024821	894.871990839036	195.379120726860	379.189581053402	836.022057242369	390.100153926505	590.389569316991	717.237899681705	346.247907507308	650.659427151592	704.604964281987	237.685210951182	599.136689885662	502.366163132698	167.437701560035	571.175405729796	671.539835682629	115.160294958290	609.950546092299	562.616847940339	106.946381015218	641.371649167776	741.760452153280	32.514900970510	630.333514984459	767.308916741616	38.200647627777	417.030660903365	841.746138865324	36.022025199528	336.657441646223	925.291369555672	96.847041796650	364.113836298893	1053.670837353564	42.405127487837	335.772765175592	798.561539927413	1087.728238045258	187.780976206257	948.292780720940	873.390093692549	164.801223940269	833.782808158488	1084.875520282914	756.813338133882	913.463991196850	836.297826517912	763.796890340970	
